<svg width="64" height="17" fill="none" xmlns="http://www.w3.org/2000/svg"><path fill-rule="evenodd" clip-rule="evenodd" d="M0 .84h63.829v15.75H0V.84Zm10.422 6.535v2.914H8.98V7.375H6.998v-1.06h5.406v1.06h-1.982Zm3.954-1.06v2.312l2.405-2.313h1.231v3.975h-1.395V7.976l-2.404 2.313H12.98V6.314h1.395Zm8.328 3.974V8.81h-2.24v1.478h-1.396V6.314h1.395v1.453h2.241V6.314H24.1v3.975h-1.395Zm6.155-.092c-.27.067-.558.092-.876.092h-2.828V6.314h1.395v1.069h1.433c.347 0 .712.008 1.02.109.645.208 1.049.667 1.049 1.327 0 .693-.472 1.202-1.193 1.378Zm-.577-1.829c-.164-.05-.347-.05-.539-.05H26.55v1.01h1.193c.24 0 .394 0 .548-.058.221-.084.356-.259.356-.468 0-.2-.135-.367-.365-.434Zm5.934 1.92-1.664-1.502h-.384v1.503h-1.395V6.314h1.395V7.81h.384l1.684-1.495h1.75l-2.231 1.904 2.318 2.07h-1.857Zm1.726-1.978c0-1.186 1.125-2.104 3-2.104 1.867 0 2.992.918 2.992 2.104 0 1.185-1.125 2.104-2.991 2.104-1.876 0-3.001-.919-3.001-2.104Zm1.471 0c0 .651.597 1.135 1.53 1.135.923 0 1.53-.484 1.53-1.135s-.607-1.127-1.53-1.127c-.933 0-1.53.476-1.53 1.127Zm7.772-2.221h1.394v.4c1.76.034 2.81.677 2.81 1.812 0 1.136-1.05 1.729-2.81 1.762v.4h-1.394v-.4c-1.751-.033-2.8-.626-2.8-1.762 0-1.135 1.049-1.778 2.8-1.811v-.401ZM43.799 8.3c0 .535.424.877 1.386.91V7.35c-.962.033-1.386.417-1.386.951Zm4.165 0c0-.534-.413-.918-1.385-.951V9.21c.972-.033 1.385-.375 1.385-.91Zm4.67-2.212h1.394v.4c1.76.034 2.81.677 2.81 1.812 0 1.136-1.05 1.729-2.81 1.762v.4h-1.394v-.4c-1.751-.033-2.8-.626-2.8-1.762 0-1.135 1.049-1.778 2.8-1.811v-.401ZM51.248 8.3c0 .535.424.877 1.386.91V7.35c-.962.033-1.386.417-1.386.951Zm4.165 0c0-.534-.413-.918-1.385-.951V9.21c.972-.033 1.385-.375 1.385-.91Z" fill="#fff"/></svg>