<svg width="67" height="24" fill="none" xmlns="http://www.w3.org/2000/svg"><path d="M35.853 20.477c-.099.016-.214.066-.312.032-.574-.214-.557.165-.557.545l-.05 2.376h.656c.082-.28-.426-.875.394-.792.426.05.836.016 1.05-.429.212-.462.262-.957-.017-1.419-.279-.445-.722-.412-1.164-.313Zm.246 1.666c-.427 0-.558-.28-.558-.643 0-.347.115-.578.508-.595.443 0 .541.281.541.611 0 .363-.082.644-.491.627ZM65.58 1.7C65.498.66 64.678 0 63.613 0c-1.394 0-2.755.247-4.132.33-5.903.363-11.806.792-17.726 1.204a227.82 227.82 0 0 0-4.722.413c.607.61 1.328 1.089 2.066 1.502-.738-.413-1.443-.891-2.066-1.502-3.771.148-7.542.462-11.314.759-3.115.248-6.23.495-9.346.71-3.574.23-7.149.511-10.74.709-.836.05-1.476.33-1.804 1.155-.13.264-.262.544-.393.808-.918 1.848-1.574 3.828-2.607 5.627v1.155c1.246 1.98 2.525 3.96 3.738 5.957.541.874 1.23 1.237 2.247 1.171 2.099-.149 4.197-.264 6.28-.413 1.607-.115 3.197-.264 4.804-.396 3.345-.23 6.69-.445 10.035-.676 5.493-.38 10.986-.776 16.479-1.172 4.115-.297 8.215-.577 12.33-.874 1.214-.066 2.427-.066 3.624-.28 1.426-.083 2.87-.133 4.296-.265 1.246-.115 1.77-.808 1.77-2.079-.31-4.025-.557-8.085-.852-12.143Zm-8.133 2.293c.246-.148.656-.313.951.066.443.594.902.577 1.263-.066.246-.429.656-.38.902-.248.295.165.098.545-.033.809-.344.66-.968.726-1.574.792-.558-.066-1.082-.099-1.394-.61-.148-.215-.426-.545-.115-.743Zm-.196 7.375c-.115-1.452-.23-2.904-.328-4.356-.017-.23-.394-.626.23-.577.376.033.917-.28.917.512.017.841.115 1.683.18 2.755a617.53 617.53 0 0 0 1.64-2.706c.115-.182.23-.38.345-.561.246-.412.672-.346 1.033-.297.41.05.213.446.23.676.114 1.205.18 2.41.294 3.614.05.495-.081.66-.59.71-.54.049-.54-.198-.557-.595-.05-.841-.131-1.666-.345-2.573-.655 1.122-1.311 2.227-1.95 3.349l-1.1.05c-.72-.43-1-.562-1.196-.347.196-.215.459-.082 1.197.346Zm-1.312-.197a2.694 2.694 0 0 0-.099.214 1.34 1.34 0 0 1 .099-.214Zm-3.181-4.488a4.043 4.043 0 0 1 1.541-.05c.722.115 1.197.545 1.28 1.287.13 1.188.261 2.393.196 3.597-.902.05-.902.05-1.082-.561-.787.66-1.59 1.303-2.657.528-.574-.429-.721-1.155-.377-2.095-.197-.066-.41-.132-.606-.215.196.066.41.132.606.215.59-.578 1.345-.644 2.115-.66.28 0 .656.099.673-.38 0-.446-.23-.726-.689-.759-.77-.066-1.427.181-1.984.776-.246-1.287-.164-1.403.984-1.683ZM12.47 9.059c.524.693 1.213 1.27 1.672 2.013.87-.743 1.771-1.502 2.64-2.277.262-.232.443-.413.705-.034.213.298.443.545.017.875-.624.479-1.181 1.023-1.771 1.551-.28.215-.574.413-.837.644-.967.841-1.557.841-2.558 0-.393-.347-.147-.809-.36-1.271.656.099 1.05.445 1.492.676.279.149.492.198.656-.132-.443-.791-1.132-1.352-1.656-2.045Zm3.476-2.08c-.017 0-.05-.016-.066-.016.033 0 .05.016.066.016ZM5.699 13.233c-.607-.033-1.099-.578-1.082-1.221.016-.61.54-1.106 1.147-1.122.656-.017 1.18.528 1.18 1.204-.016.677-.557 1.172-1.245 1.139Zm11.346 1.584c-1.721 1.337-3.558 1.7-5.542.594-1.656-.907-2.951-3.663-1.869-5.692.41-.76.885-1.42 1.541-1.98 1.328-.825 2.739-1.04 4.247-.545.115.066.246.099.36.181.198.133.657.182.476.495-.18.281-.442.677-.983.462-1.066-.445-2.149-.495-3.165.165-1.312.793-1.984 2.162-1.738 3.598.23 1.352 1.36 2.59 2.722 2.854 1.18.248 2.722-.033 3.558-1.402.033-.05.065-.116.115-.165.098-.034.164-.1.147-.215.328-.462.394-1.006.443-1.534.016-.182-.05-.413.098-.545.23-.198.41-.61.755-.511.262.082.18.478.18.742.066 1.37-.508 2.491-1.345 3.498Zm6.018-6.716Zm4.51 4.72c0 .379.13.742-.51.726-.606-.017-.852-.248-.803-.809.099-1.353-.082-2.673-.196-4.01.016-1.055.016-1.055-.984-.94-.312.033-.64.099-.951.132-.115 0-.23 0-.345.016-.393-.032-.787-.049-1.164.116-.574.082-.262.528-.246.776.066 1.501.164 3.003.296 4.504.049.495-.18.528-.558.528-.328 0-.607.083-.64-.445-.114-1.964-.295-3.927-.459-5.907-.032-.38 0-.66.476-.628 1.656-.098 3.296-.181 4.952-.313.54-.05.82.115.82.676.754.165 1.508.33 2.279.479-.754-.149-1.509-.33-2.28-.479-.081 1.881.312 3.73.312 5.577Zm6.214-1.436c-.05.973-.787 1.65-2.034 1.898-1.147.23-2.246-.264-2.705-1.188-.721-1.469-.246-2.987 1.148-3.779.623-.099 1.213-.215 1.852-.083.87.182 1.329.776 1.673 1.518.295.034.607.05.836.199-.23-.149-.54-.182-.836-.198.033.544.082 1.088.066 1.633Zm9.313 1.93c-.295.842-.869 1.255-1.558 1.155-.36-.049-.557-.197-.557-.627 0-.478.164-.412.525-.412.557.017.918-.66.672-1.204-.246-.512-.541-1.007-.804-1.518a241.816 241.816 0 0 0-3.361-.825c-.344.346.016.527.197.742.54.644 1.082 1.27 1.689 1.98-.804.214-1.427.198-1.902-.528-.23-.363-.558-.66-.837-1.006-.213-.264-.492-.33-.803-.231-.41.115-.197.445-.197.693 0 .214.017.445.066.66.098.494-.017.692-.574.758-.672.083-.525-.313-.558-.66a72.911 72.911 0 0 0-.18-1.88c.082-.611-.082-1.205-.131-1.799-.05-.528.18-.627.656-.676.524-.05.508.23.508.577 0 .248.016.495.033.743.033.247-.066.594.328.643.311.033.574-.05.754-.363.246-.446.557-.875.787-1.337.164-.313.36-.461.689-.445.23.016.475.016.705.033-.41.71-.837 1.419-1.246 2.128 1.115.281 2.246.561 3.361.825-.377-1.039-1-1.963-1.492-2.953 1.066-.396 1.131-.363 1.918 1.04.28.627.574 1.254.951 2.095.214-.874.361-1.502.525-2.145.082-.347.18-.677.262-1.023.148-.545.64-.495.984-.429.509.083.099.462.082.693-.033.479-.377.891-.328 1.402-.262.529-.393 1.09-.475 1.667a38.556 38.556 0 0 1-.689 2.228Zm3.968-1.253c-.426-.017-1.033.643-1.18-.33-.378-.314-.82-.446-1.263-.528.46.082.885.214 1.263.527.065-.676-.099-1.32-.148-1.98-.016-.428.066-.89-.05-1.303-.229-.842-.048-1.32.903-1.337-.296-.56-.804-.841-1.345-1.022.525.181 1.05.478 1.345 1.022.901-.016 1.803.034 2.689-.148.606-.132.852.099.852.71 0 .412.05.825.082 1.237l.148 2.822c-.984.412-1.099.33-1.18-.809-.345-.28-.755-.347-1.165-.479.41.116.82.198 1.164.479l-.147-2.459c-.017-.264-.115-.396-.394-.379-.459.033-.918.033-1.394.066-.245.017-.426.099-.393.396.098.759-.066 1.534.197 2.277 0 .396.016.825.016 1.238.279-.05.541 0 .804.082a1.451 1.451 0 0 0-.804-.082Zm.951.132c.099.049.197.082.295.148l-.295-.149ZM30.72 20.51c-.065.115-.18.148-.262.082-.131-.115.05-.148.082-.231.18-.512.656-.396 1.033-.495.197-.05.46-.033.41-.38-.05-.313-.295-.165-.46-.148-1.36.115-2.065 1.6-1.36 2.788.295.479.738.528 1.213.446.46-.066.705-.38.77-.841.132-.974-.425-1.502-1.426-1.222Zm.328 1.65c-.41-.017-.557-.281-.557-.66 0-.363.18-.545.54-.561.41-.017.575.23.591.56 0 .43-.18.677-.574.66Zm-1.902-.166c-.721.265-1.328.1-1.525-.462-.18-.527-.147-1.055.41-1.352.509-.264.984-.1 1.443.23.082-.297.164-.544-.164-.726-.557-.297-1.607-.082-2.017.43-.475.577-.459 1.485.033 2.046.443.494 1.492.643 2.034.313.229-.132.327-.33.245-.544-.164-.314-.328.016-.459.066Zm13.184-1.517c-.378-.149-.492.23-.657.462-.163.23-.295.593-.623.115-.18-.264-.295-.792-.754-.561-.328.149-.098.594-.147.908a.735.735 0 0 0 0 .33c.082.28-.214.808.213.824.524.017.18-.544.279-.841.032-.099 0-.214.18-.247.328.759.705.594 1.18.033 0 .165-.016.33 0 .494.033.215-.147.561.23.578.41.017.23-.346.246-.561a3.47 3.47 0 0 0 0-.825c0-.231.197-.578-.148-.71Zm-3.755-.05c-.738 0-1.116.38-1.116 1.105 0 .677.328 1.073 1.033 1.106.706.016 1.148-.38 1.165-1.073.033-.709-.377-1.138-1.082-1.138Zm.081 1.765c-.54-.016-.672-.297-.672-.66 0-.363.148-.66.541-.676.443-.017.623.313.607.71 0 .346-.148.643-.475.627Zm-5.426-1.715c-.526.115-.755.511-.755 1.039 0 .545.197.99.77 1.089.427.066.935.198 1.148-.544a4.44 4.44 0 0 0-.344.066c-.377.082-.935.23-.967-.232-.033-.478.54-.181.836-.214.607-.066.754-.28.443-.825-.246-.479-.69-.495-1.132-.38Zm.704.742c-.262.165-.54.115-.885 0 .246-.38.492-.446.803-.248.099.05.164.198.082.248Zm-9.592-.792c-.705.033-1.033.413-1.05 1.105 0 .71.427 1.122 1.132 1.106.705-.017 1.115-.446 1.099-1.139-.033-.709-.476-1.088-1.181-1.072Zm.607 1.04c.016.462-.164.709-.558.709-.41 0-.574-.264-.574-.627 0-.412.164-.71.607-.693.377.033.574.28.525.61Zm-3.149.478c-.163-.264-.114-.528.017-.776.164-.28.443-.247.721-.247.148 0 .328.363.443 0 .082-.314-.131-.445-.426-.462-.246 0-.509-.017-.722.066-.508.181-.688.61-.64 1.122.05.512.28.907.82.974.41.049.886.148 1.1-.578-.296.099-.444.165-.607.181-.28.05-.541-.016-.706-.28Z" fill="#fff"/><path d="M31.343 9.157c-.901-.016-1.475.578-1.475 1.486.016 1.039.54 1.699 1.36 1.715.902.017 1.427-.544 1.427-1.518.017-1.072-.443-1.666-1.312-1.683Zm22.35.331c-.132-.034-.263.049-.41.066-.394.049-.722.148-.656.643.065.446.41.528.852.528.099-.033.263-.066.41-.115.427-.149.755-.43.672-.908-.098-.561-.573-.149-.868-.214Z" fill="#fff"/></svg>