<svg width="232" height="51" fill="none" xmlns="http://www.w3.org/2000/svg"><path d="M83.599 45.487v-1.019c.004-.42-.016-.84-.06-1.258a1.675 1.675 0 0 0-.246-.725.868.868 0 0 0-.513-.347 3.77 3.77 0 0 0-.862-.08v-.389h4.873v.416c-.29-.006-.58.02-.862.08a.857.857 0 0 0-.508.346c-.137.22-.22.469-.245.726a9.55 9.55 0 0 0-.066 1.258v3.327c-.005.417.017.834.066 1.248.025.265.108.521.245.752.118.174.3.3.508.351.283.06.572.087.862.08v.416h-4.873v-.416c.29.007.58-.02.862-.08a.874.874 0 0 0 .513-.351c.137-.23.22-.487.246-.752.044-.415.064-.831.06-1.248v-1.536h-4.845v1.536c-.006.417.016.834.065 1.248.021.265.103.522.24.752a.895.895 0 0 0 .513.351c.283.06.573.087.862.08v.416h-4.872v-.416c.29.007.579-.02.862-.08a.862.862 0 0 0 .507-.351c.142-.229.226-.486.246-.752.049-.414.07-.831.065-1.248v-3.327c.006-.42-.016-.84-.065-1.258a1.543 1.543 0 0 0-.246-.726.857.857 0 0 0-.507-.346 3.764 3.764 0 0 0-.862-.08v-.416h4.872v.416c-.29-.007-.579.02-.862.08a.884.884 0 0 0-.513.346c-.137.22-.22.469-.24.726a9.55 9.55 0 0 0-.065 1.258v1.018l4.845-.026Zm26.342.645a4.414 4.414 0 0 1-.415 1.893 4.93 4.93 0 0 1-1.091 1.551 5.428 5.428 0 0 1-1.637 1.04 5.27 5.27 0 0 1-2.008.384 5.318 5.318 0 0 1-3.65-1.424 4.965 4.965 0 0 1-1.118-1.551 4.414 4.414 0 0 1-.415-1.893 4.274 4.274 0 0 1 .415-1.872 5.154 5.154 0 0 1 1.118-1.535 5.22 5.22 0 0 1 3.65-1.456 5.174 5.174 0 0 1 2.008.39 5.153 5.153 0 0 1 2.728 2.601 4.28 4.28 0 0 1 .415 1.872Zm-1.741 0a5.417 5.417 0 0 0-.185-1.381 3.882 3.882 0 0 0-.595-1.312 3.341 3.341 0 0 0-1.091-.975 3.106 3.106 0 0 0-1.593-.384 3.13 3.13 0 0 0-1.61.384c-.422.247-.784.58-1.064.975a3.996 3.996 0 0 0-.594 1.312 5.65 5.65 0 0 0-.18 1.38c.001.474.062.944.18 1.403.116.468.318.913.594 1.312.277.395.64.725 1.064.965a3.187 3.187 0 0 0 1.61.379 3.163 3.163 0 0 0 1.593-.38 3.201 3.201 0 0 0 1.091-.964c.279-.398.481-.843.595-1.312.128-.457.196-.928.202-1.402h-.017Zm16.931 1.663a9.46 9.46 0 0 0 .065 1.248c.021.265.103.522.24.752.121.175.304.3.513.352.283.06.573.086.862.08v.416h-4.146v-.416c.287.006.575-.02.856-.08a.854.854 0 0 0 .513-.352 1.8 1.8 0 0 0 .246-.752c.049-.414.07-.83.065-1.248v-3.327a9.62 9.62 0 0 0-.065-1.258 1.682 1.682 0 0 0-.246-.725.851.851 0 0 0-.513-.347 3.747 3.747 0 0 0-.856-.08v-.389h3.191l3.171 6.931 3.148-6.93h2.979v.415a3.76 3.76 0 0 0-.862.08.93.93 0 0 0-.546.346 1.607 1.607 0 0 0-.256.726c-.045.418-.065.838-.06 1.258v3.327c-.004.417.016.833.06 1.248.025.266.113.523.256.752a.936.936 0 0 0 .546.351c.283.06.572.087.862.08v.416h-4.873v-.416c.29.007.579-.02.862-.08a.862.862 0 0 0 .508-.351 1.8 1.8 0 0 0 .245-.752c.049-.414.071-.831.066-1.248v-3.914L128.748 51h-.3l-3.317-7.364v4.16Zm28.917 2.011c.247-.035.485-.113.704-.23.162-.1.293-.24.382-.405.098-.2.169-.411.213-.63l.104-.41h.425l-.169 2.512h-7.955v-.416a3.8 3.8 0 0 0 .862-.08.86.86 0 0 0 .507-.352 1.8 1.8 0 0 0 .246-.752 9.46 9.46 0 0 0 .065-1.248v-3.327a9.62 9.62 0 0 0-.065-1.258 1.682 1.682 0 0 0-.246-.725.857.857 0 0 0-.507-.347 3.794 3.794 0 0 0-.862-.08v-.389h7.448l.169 2.495h-.448l-.109-.416a3.024 3.024 0 0 0-.202-.613.89.89 0 0 0-.371-.416 1.893 1.893 0 0 0-.704-.229 7.542 7.542 0 0 0-1.167-.075h-1.424v3.098h.125c.423.005.846-.014 1.266-.058.245-.02.48-.103.682-.24a.828.828 0 0 0 .289-.501c.044-.28.064-.56.06-.843h.426v4.058h-.426a4.951 4.951 0 0 0-.06-.843.815.815 0 0 0-.289-.5 1.42 1.42 0 0 0-.682-.24 9.838 9.838 0 0 0-1.266-.06h-.125v1.206c-.004.416.016.833.06 1.247.023.26.107.512.245.736.12.175.304.299.513.347.283.06.573.086.862.08h.257a7.678 7.678 0 0 0 1.167-.096ZM0 19.499a7.693 7.693 0 0 0 1.86-.181 1.8 1.8 0 0 0 1.092-.768 3.884 3.884 0 0 0 .545-1.632c.103-.904.149-1.814.137-2.724V6.942a21.41 21.41 0 0 0-.137-2.746 3.628 3.628 0 0 0-.545-1.6 1.838 1.838 0 0 0-1.091-.75A7.972 7.972 0 0 0 0 1.663V.757h9.728a14.655 14.655 0 0 1 5.047.774 9.664 9.664 0 0 1 3.487 2.106 8.11 8.11 0 0 1 2.018 3.13 11.07 11.07 0 0 1 .644 3.785 11.213 11.213 0 0 1-.644 3.834 8.098 8.098 0 0 1-2.018 3.124 9.671 9.671 0 0 1-3.487 2.133 14.796 14.796 0 0 1-5.047.768H0v-.912Zm17.1-8.93a14.601 14.601 0 0 0-.279-2.79 7.021 7.021 0 0 0-1.091-2.628 6.162 6.162 0 0 0-2.182-1.973 7.672 7.672 0 0 0-3.694-.773H6.869v12.882c-.006.59.025 1.179.093 1.765.037.379.164.744.371 1.066.185.258.464.438.78.501.453.085.914.123 1.375.112h.366a7.61 7.61 0 0 0 3.694-.773 6.207 6.207 0 0 0 2.182-1.951 6.843 6.843 0 0 0 1.091-2.629c.182-.926.275-1.867.278-2.81Zm22.315 5.438c-.23.541-.428 1.095-.595 1.658a1.348 1.348 0 0 0 .05 1.066 1.326 1.326 0 0 0 .938.565 10.18 10.18 0 0 0 2.084.16v.95h-8.67v-.95a8.814 8.814 0 0 0 1.719-.138c.43-.083.827-.278 1.151-.565.364-.35.666-.755.895-1.2.273-.533.595-1.195.96-2.042L44.691 0h.644l6.744 15.51c.37.848.698 1.525.987 2.042.24.44.55.842.917 1.189.306.279.683.474 1.091.565a6.974 6.974 0 0 0 1.517.139v.949h-10.28v-.95c1.638 0 2.62-.245 2.914-.724.295-.48.142-1.392-.436-2.725l-.917-2.085h-7.53l-.927 2.096ZM44.096 5.31l-3.028 6.931h6.04L44.096 5.31Zm28.82-1.114a3.676 3.676 0 0 0-.546-1.6 1.85 1.85 0 0 0-1.091-.75 7.971 7.971 0 0 0-1.86-.182V.757h5.646l12.206 14.327V6.926c.01-.917-.035-1.834-.137-2.746a3.627 3.627 0 0 0-.545-1.6 1.85 1.85 0 0 0-1.091-.75 7.945 7.945 0 0 0-1.834-.15V.773h8.948v.907a7.921 7.921 0 0 0-1.855.181 1.838 1.838 0 0 0-1.091.752 3.627 3.627 0 0 0-.546 1.6c-.104.911-.15 1.828-.136 2.745v14.189h-.873L74.76 5.327v8.883c-.012.91.033 1.82.136 2.724.057.577.244 1.134.546 1.632.248.384.64.66 1.091.768a7.648 7.648 0 0 0 1.855.181v.906H69.44v-.906a7.693 7.693 0 0 0 1.86-.181 1.81 1.81 0 0 0 1.092-.768c.3-.5.486-1.056.546-1.632.1-.904.145-1.814.136-2.724V6.958a22.464 22.464 0 0 0-.158-2.762Zm38.449-1.652a15.361 15.361 0 0 0-2.499.16 3.67 3.67 0 0 0-1.446.495c-.33.217-.587.525-.736.886-.181.443-.334.897-.459 1.36l-.229.906h-.916l.321-5.578h20.417l.322 5.578h-.916l-.23-.907a6.935 6.935 0 0 0-.436-1.36 2.114 2.114 0 0 0-.758-.885 3.683 3.683 0 0 0-1.425-.495 15.435 15.435 0 0 0-2.52-.16h-2.619v11.65c-.011.91.036 1.82.142 2.724.049.578.236 1.137.545 1.632a1.89 1.89 0 0 0 1.124.768 7.65 7.65 0 0 0 1.855.181v.906h-10.595V19.5a7.654 7.654 0 0 0 1.855-.181c.46-.11.861-.384 1.124-.768a3.679 3.679 0 0 0 .545-1.632c.103-.904.149-1.814.137-2.724V2.544h-2.603Zm50.322 8.024a9.816 9.816 0 0 1-.895 4.127 10.66 10.66 0 0 1-2.412 3.375 11.478 11.478 0 0 1-7.916 3.109 11.374 11.374 0 0 1-4.338-.837 11.432 11.432 0 0 1-3.557-2.272 10.671 10.671 0 0 1-2.407-3.375 9.736 9.736 0 0 1-.894-4.127 9.413 9.413 0 0 1 .894-4.079 11.233 11.233 0 0 1 2.407-3.359 11.286 11.286 0 0 1 3.557-2.287A11.271 11.271 0 0 1 150.464 0c1.498-.01 2.983.277 4.365.843a11.33 11.33 0 0 1 3.551 2.287 11.244 11.244 0 0 1 2.412 3.36 9.505 9.505 0 0 1 .895 4.078Zm-3.765 0a12.606 12.606 0 0 0-.387-3.012 8.672 8.672 0 0 0-1.288-2.858 7.262 7.262 0 0 0-2.313-2.133 6.67 6.67 0 0 0-3.443-.837 6.622 6.622 0 0 0-3.465.837 7.376 7.376 0 0 0-2.297 2.133 8.581 8.581 0 0 0-1.266 2.847 12.356 12.356 0 0 0-.392 3.012 12.55 12.55 0 0 0 .392 3.061 8.615 8.615 0 0 0 1.283 2.858 7.161 7.161 0 0 0 2.297 2.133 6.773 6.773 0 0 0 3.464.815 6.831 6.831 0 0 0 3.443-.815 7.047 7.047 0 0 0 2.313-2.133 8.72 8.72 0 0 0 1.288-2.858c.251-.998.381-2.022.388-3.05h-.017Zm22.408-6.372a3.699 3.699 0 0 0-.545-1.6 1.85 1.85 0 0 0-1.091-.75 7.893 7.893 0 0 0-1.855-.182V.757h5.647l12.2 14.327V6.926a21.533 21.533 0 0 0-.137-2.746 3.699 3.699 0 0 0-.545-1.6 1.853 1.853 0 0 0-1.092-.75 7.967 7.967 0 0 0-1.86-.182V.74H200v.939a7.975 7.975 0 0 0-1.861.181 1.82 1.82 0 0 0-1.091.752 3.629 3.629 0 0 0-.546 1.6 21.532 21.532 0 0 0-.136 2.745v14.189h-.851l-13.351-15.82v8.883c-.012.91.033 1.82.136 2.724.06.576.246 1.133.546 1.632.249.383.64.658 1.091.768.61.136 1.235.196 1.861.181v.906h-8.949v-.906a7.618 7.618 0 0 0 1.856-.181c.451-.11.842-.384 1.091-.768.299-.5.486-1.056.545-1.632.103-.904.149-1.814.137-2.724V6.958c.01-.922-.039-1.845-.148-2.762Zm47.72 14.375a4.171 4.171 0 0 0 1.517-.5c.354-.212.64-.517.823-.88.211-.435.365-.894.459-1.366l.234-.906H232l-.371 5.486h-17.16V19.5a7.694 7.694 0 0 0 1.861-.181c.451-.11.842-.385 1.091-.768.3-.5.486-1.056.546-1.632.103-.904.148-1.814.136-2.724V6.942a21.35 21.35 0 0 0-.136-2.746 3.7 3.7 0 0 0-.546-1.6 1.848 1.848 0 0 0-1.091-.75 7.976 7.976 0 0 0-1.861-.182V.757h16.058l.371 5.444h-.966l-.229-.906a7.275 7.275 0 0 0-.437-1.338 1.995 1.995 0 0 0-.802-.907 4.166 4.166 0 0 0-1.511-.501 16.037 16.037 0 0 0-2.526-.16h-3.072v6.755h.273c.911.015 1.823-.03 2.728-.133a3.033 3.033 0 0 0 1.473-.533c.329-.273.547-.65.617-1.066a9.89 9.89 0 0 0 .136-1.835h.922v8.846h-.922a9.858 9.858 0 0 0-.136-1.84 1.803 1.803 0 0 0-.617-1.066 2.982 2.982 0 0 0-1.473-.533 21.001 21.001 0 0 0-2.728-.139h-.273v2.629c-.012.91.034 1.82.136 2.725a3.75 3.75 0 0 0 .546 1.6c.255.374.644.642 1.091.751a7.98 7.98 0 0 0 1.85.192h.546c.845.01 1.69-.047 2.526-.17Zm3.917 11.464H0v.96h231.967v-.96Z" fill="#ffffff"/></svg>