<svg width="50" height="50" fill="none" xmlns="http://www.w3.org/2000/svg"><mask id="a" fill="#fff"><path fill-rule="evenodd" clip-rule="evenodd" d="m7.653 32.198-.069.616-.637 5.677 4.466-2.216.688-.342.68.36a17.317 17.317 0 0 0 8.118 2.005c9.61 0 17.4-7.79 17.4-17.399 0-9.61-7.79-17.399-17.4-17.399S3.5 11.29 3.5 20.9a17.32 17.32 0 0 0 3.768 10.813l.385.485Zm-.905 8.067-1.598.793.199-1.773.745-6.639A18.82 18.82 0 0 1 2 20.9C2 10.461 10.461 2 20.9 2c10.437 0 18.898 8.461 18.898 18.9 0 10.437-8.461 18.898-18.899 18.898-3.185 0-6.187-.788-8.82-2.18l-5.33 2.647Z"/></mask><path d="m7.584 32.814 1.49.167-1.49-.167Zm.07-.616 1.49.167.069-.615-.385-.485-1.175.933Zm-.707 6.293-1.49-.167-.307 2.734 2.464-1.223-.667-1.344Zm4.466-2.216.666 1.343-.666-1.343Zm.688-.342.701-1.326-.68-.36-.688.343.667 1.343Zm.68.36-.702 1.325.701-1.326Zm-5.513-4.58 1.174-.933-1.174.933Zm-.52 8.552-.667-1.344.667 1.344Zm-1.598.793-1.49-.167-.308 2.734 2.465-1.223-.667-1.344Zm.199-1.773 1.49.167-1.49-.167Zm.745-6.639 1.49.168.07-.616-.386-.485-1.174.933Zm5.985 4.972.701-1.326-.679-.359-.688.342.666 1.343Zm-3.004-4.637.069-.616-2.981-.334-.07.615 2.982.335Zm-.637 5.677.637-5.677-2.981-.335-.637 5.678 2.98.334Zm2.308-3.727L6.28 37.148l1.334 2.687 4.465-2.217-1.333-2.687Zm.688-.341-.688.341 1.333 2.687.689-.341-1.334-2.688Zm2.048.376-.68-.36L11.4 37.26l.68.36 1.402-2.653Zm7.417 1.832a15.82 15.82 0 0 1-7.418-1.832l-1.402 2.652a18.816 18.816 0 0 0 8.82 2.18v-3ZM36.8 20.9c0 8.78-7.12 15.9-15.9 15.9v3c10.438 0 18.9-8.462 18.9-18.9h-3ZM20.898 5c8.78 0 15.9 7.118 15.9 15.9h3c0-10.439-8.462-18.9-18.9-18.9v3ZM5 20.9C5 12.117 12.118 5 20.9 5V2C10.46 2 2 10.461 2 20.9h3Zm3.442 9.88A15.82 15.82 0 0 1 5 20.9H2c0 4.439 1.53 8.52 4.094 11.746l2.348-1.866Zm.386.485-.386-.485-2.348 1.866.385.485 2.349-1.866ZM6.08 38.921l-1.598.794 1.334 2.687 1.598-.794-1.334-2.687Zm.56 2.304.198-1.773-2.98-.334-.2 1.773 2.981.334Zm.198-1.773.745-6.638-2.981-.335-.745 6.639 2.981.334Zm.429-7.739A17.32 17.32 0 0 1 3.5 20.9h-3c0 4.79 1.653 9.2 4.42 12.68l2.348-1.866ZM3.5 20.9c0-9.61 7.79-17.4 17.4-17.4v-3C9.632.5.5 9.633.5 20.9h3ZM20.9 3.5c9.608 0 17.398 7.79 17.398 17.4h3C41.298 9.632 32.165.5 20.9.5v3Zm17.398 17.4c0 9.608-7.79 17.398-17.399 17.398v3c11.266 0 20.4-9.133 20.4-20.399h-3ZM20.9 38.297c-2.935 0-5.696-.726-8.119-2.006l-1.401 2.652a20.318 20.318 0 0 0 9.52 2.354v-3Zm-9.486-2.023L6.08 38.92l1.334 2.687 5.331-2.646-1.333-2.687Z" fill="#002B45" mask="url(#a)"/><mask id="b" fill="#fff"><path fill-rule="evenodd" clip-rule="evenodd" d="M38.874 18.932c4.74 2.027 8.06 6.731 8.06 12.21 0 3.118-1.075 5.983-2.875 8.249l-.192.242.034.308.547 4.874-3.91-1.94-.343-.172-.34.18a13.211 13.211 0 0 1-6.193 1.53 13.256 13.256 0 0 1-10.884-5.674l-1.23.86a14.756 14.756 0 0 0 12.114 6.314c2.35 0 4.574-.55 6.548-1.527l4.803 2.384 1.232.611-.153-1.367-.666-5.938a14.71 14.71 0 0 0 3.008-8.935c0-6.1-3.697-11.334-8.97-13.588l-.59 1.379Z"/></mask><path d="m38.874 18.932-.59 1.38-1.379-.59.59-1.38 1.38.59Zm5.185 20.459-1.174-.934 1.174.934Zm-.192.242-1.491.167-.07-.615.386-.485 1.175.933Zm.034.308 1.49-.168-1.49.168Zm.547 4.874 1.49-.168.307 2.734-2.464-1.223.667-1.343Zm-3.91-1.94-.666 1.343.667-1.344Zm-.343-.172-.702-1.326.68-.36.688.343-.666 1.343Zm-.34.18.7 1.326-.7-1.326Zm-17.077-4.145-.86-1.229 1.23-.86.859 1.23-1.23.86Zm-1.23.86-1.228.86-.86-1.23 1.229-.859.86 1.23Zm18.662 4.788-.665-1.344.666-.33.666.33-.667 1.344Zm4.803 2.384.667-1.344-.667 1.344Zm1.232.611 1.49-.167.308 2.734-2.465-1.223.667-1.344Zm-.153-1.367 1.49-.167-1.49.167Zm-.666-5.938-1.49.168-.068-.597.364-.479 1.194.909Zm-5.962-22.523-1.38-.59.59-1.38 1.38.59-.59 1.38Zm5.97 13.588c0-4.856-2.942-9.031-7.15-10.83l1.18-2.758c5.273 2.254 8.97 7.489 8.97 13.588h-3Zm-2.55 7.316a11.713 11.713 0 0 0 2.55-7.316h3c0 3.47-1.197 6.662-3.2 9.183l-2.35-1.867Zm-.192.243.193-.243 2.349 1.867-.193.242-2.349-1.866Zm-.282 1.408-.034-.308 2.981-.334.035.307-2.982.335Zm.547 4.874-.547-4.874 2.982-.335.547 4.874-2.982.335Zm-1.751-3.451 3.909 1.94-1.334 2.687-3.91-1.94 1.335-2.688Zm-.345-.171.345.17-1.334 2.688-.344-.171 1.333-2.687Zm-1.707.197.34-.18 1.401 2.652-.34.18-1.401-2.652Zm-5.492 1.356a11.71 11.71 0 0 0 5.492-1.356l1.402 2.652a14.71 14.71 0 0 1-6.894 1.704v-3Zm-9.655-5.034a11.756 11.756 0 0 0 9.655 5.034v3a14.756 14.756 0 0 1-12.113-6.315l2.458-1.72Zm-3.318.49 1.23-.86 1.718 2.459-1.229.86-1.719-2.459Zm12.973 9.044a16.255 16.255 0 0 1-13.342-6.955l2.458-1.72a13.256 13.256 0 0 0 10.884 5.675v3Zm7.214-1.683a16.215 16.215 0 0 1-7.214 1.683v-3c2.114 0 4.11-.494 5.883-1.371l1.331 2.688Zm3.47 2.383-4.803-2.384 1.334-2.687 4.803 2.384-1.334 2.687Zm1.232.612-1.232-.612 1.334-2.687 1.232.612-1.334 2.687Zm2.005-2.878.153 1.367-2.981.335-.154-1.367 2.982-.335Zm-.667-5.938.667 5.938-2.982.335-.666-5.938 2.981-.335Zm3.018-8.768a16.21 16.21 0 0 1-3.314 9.844l-2.388-1.817a13.21 13.21 0 0 0 2.702-8.027h3Zm-9.88-14.967c5.805 2.481 9.88 8.246 9.88 14.967h-3c0-5.478-3.32-10.182-8.06-12.209l1.18-2.758Zm-2.559 2.168.59-1.379 2.758 1.18-.59 1.379-2.758-1.18Z" fill="#002B45" mask="url(#b)"/></svg>