<svg width="50" height="50" fill="none" xmlns="http://www.w3.org/2000/svg"><path d="M37.49 28.334c0 9.634-12.755 19.665-12.755 19.665S11.98 37.974 11.98 28.334c0-3.43 1.344-6.72 3.736-9.145a12.666 12.666 0 0 1 9.019-3.789c3.382 0 6.627 1.363 9.019 3.789a13.026 13.026 0 0 1 3.735 9.145Z" stroke="#002B45" stroke-width="1.5" stroke-miterlimit="10"/><path d="m5.537 14.908 19.464-12.91 19.463 12.91" stroke="#002B45" stroke-width="1.5"/><path d="M24.39 34.116c3.022 0 5.473-2.489 5.473-5.559 0-3.07-2.45-5.559-5.474-5.559-3.023 0-5.473 2.489-5.473 5.56 0 3.07 2.45 5.558 5.473 5.558Z" stroke="#002B45" stroke-width="1.5" stroke-miterlimit="10"/></svg>