<svg width="50" height="50" fill="none" xmlns="http://www.w3.org/2000/svg"><path d="M35.972 1.969H14.41c-2.436 0-4.41 1.869-4.41 4.175v37.681C10 46.131 11.974 48 14.409 48h21.563c2.435 0 4.409-1.869 4.409-4.175V6.145c0-2.306-1.974-4.175-4.409-4.175Z" stroke="#002B45" stroke-width="1.5" stroke-miterlimit="10"/><path d="m19.471 25.862-.6-3.688a6.797 6.797 0 0 1 4.676-7.576l.098-.031a6.481 6.481 0 0 1 8.336 7.225l-.662 4.07" stroke="#002B45" stroke-width="1.5"/><path d="M25.652 28.283c-2.423.202-4.615-1.071-6.113-2.376-.935-.815-2.405-.922-3.276-.04-.556.563-.74 1.404-.375 2.106 1.458 2.809 4.758 6.83 9.764 6.83 4.999 0 8.124-4.01 9.465-6.817.342-.716.142-1.55-.415-2.114-.884-.896-2.373-.817-3.355-.03-1.39 1.114-3.39 2.248-5.695 2.44Z" stroke="#002B45" stroke-width="1.5"/><path d="m19.641 32.57-1.795 2.998a.98.98 0 0 0 1.562 1.168l2.465-2.675m9.275-1.491 1.796 2.998a.98.98 0 0 1-1.562 1.168l-2.466-2.675" stroke="#002B45" stroke-width="1.5"/><rect x="20" y="4" width="11" height="1.5" rx=".75" fill="#002B45"/></svg>