<svg width="40" height="13" fill="none" xmlns="http://www.w3.org/2000/svg"><path d="m16.016.763-2.033 11.93h3.252L19.269.763h-3.253Zm-4.759.013L8.073 8.912l-.34-1.228c-.628-1.48-2.41-3.606-4.503-4.946l2.911 9.949 3.44-.006L14.701.774l-3.444.002Z" fill="#fff"/><path d="M6.5 1.63C6.31.903 5.761.687 5.082.66H.042L0 .899C3.923 1.85 6.518 4.143 7.595 6.9L6.5 1.63Zm19.359 1.42a6.002 6.002 0 0 1 2.433.457l.293.138.44-2.586a8.392 8.392 0 0 0-2.912-.5c-3.213 0-5.477 1.617-5.495 3.936-.02 1.713 1.613 2.67 2.847 3.241 1.267.586 1.692.958 1.686 1.48-.01.799-1.01 1.165-1.944 1.165-1.302 0-1.994-.18-3.062-.624l-.418-.191-.458 2.67c.761.334 2.165.62 3.623.635 3.417 0 5.638-1.598 5.662-4.076.014-1.356-.853-2.39-2.732-3.239-1.137-.553-1.833-.921-1.826-1.48 0-.496.59-1.026 1.863-1.026ZM37.37.776h-2.513c-.78 0-1.36.213-1.703.99L28.326 12.7h3.415s.556-1.47.683-1.792l4.163.005c.097.417.397 1.787.397 1.787H40L37.37.776Zm-4.01 7.69 1.295-3.335c-.018.033.265-.69.433-1.139l.22 1.029.752 3.444h-2.7Z" fill="#fff"/></svg>