<svg width="41" height="12" fill="none" xmlns="http://www.w3.org/2000/svg"><path fill-rule="evenodd" clip-rule="evenodd" d="M3.791.165c.367-.002 1.455-.1 1.916 1.446.311 1.04.806 2.745 1.485 5.114h.276a1012.79 1012.79 0 0 1 1.5-5.114C9.436.049 10.6.165 11.066.165h3.595v11.102h-3.664V4.725h-.245l-2.043 6.542H5.952L3.909 4.72h-.245v6.547H0V.165h3.791Zm16.13 0v6.548h.292l2.485-5.384C23.18.257 24.208.165 24.208.165h3.545v11.102h-3.74V4.72h-.293l-2.435 5.384c-.482 1.066-1.559 1.163-1.559 1.163h-3.545V.165h3.74Zm20.76 5.276c-.522 1.468-2.16 2.52-3.974 2.52h-3.922v3.306h-3.557V5.441H40.68ZM36.878.165h-7.837c.187 2.472 2.33 4.588 4.55 4.588h7.337c.424-2.055-1.034-4.588-4.05-4.588Z" fill="#fff"/></svg>